<?xml version="1.0" standalone="no"?><!DOCTYPE svg PUBLIC "-//W3C//DTD SVG 1.1//EN" "http://www.w3.org/Graphics/SVG/1.1/DTD/svg11.dtd"><svg t="1612232890554" class="icon" viewBox="0 0 1024 1024" version="1.1" xmlns="http://www.w3.org/2000/svg" p-id="7504" xmlns:xlink="http://www.w3.org/1999/xlink" width="128" height="128"><defs><style type="text/css"></style></defs><path d="M503.999 543.297m-102.593 0a102.593 102.593 0 1 0 205.186 0 102.593 102.593 0 1 0-205.186 0Z" fill="#ffffff" p-id="7505"></path><path d="M695.882 511.212c6.264 0.465 12.676 0.927 19.159 1.587 6.415 0.832 12.94 1.733 19.575 2.709 6.549 1.165 13.165 2.473 19.896 3.815l2.526 0.51c0.839 0.183 1.664 0.394 2.498 0.591l5.013 1.216 10.124 2.516c27.037 7.1 54.584 16.767 82.22 28.455l7.074 3.11 8.167 3.63 5.05 2.267c1.787 0.797 3.662 1.646 5.569 2.589 7.671 3.729 16.772 8.099 26.475 13.06 4.814 2.562 9.79 5.208 14.846 7.896 5.061 2.737 10.318 5.487 15.366 8.443l15.275 8.819 7.533 4.4 7.235 4.435 13.748 8.537c4.38 2.743 8.577 5.339 12.307 7.838l18.279 12.118 6.971 4.672 0.561-8.329 1.382-22.155c0.31-4.632 0.463-9.587 0.657-14.878l0.549-16.716 0.239-8.891 0.058-9.088 0.025-18.697c0.043-6.324-0.2-12.57-0.36-18.801l-0.596-18.373c-0.567-11.924-1.367-23.124-2.022-32.836a189.77 189.77 0 0 0-0.579-6.943l-0.601-6.266-1.018-10.24-0.929-8.975c-4.065-34.777-10.156-70.265-19.112-106.396l-3.525-13.567-1.813-6.825-0.928-3.419-1.013-3.398c-2.724-9.067-5.503-18.225-8.458-27.425a1796.42 1796.42 0 0 0-9.772-27.598c-3.54-9.203-7.325-18.429-11.163-27.747L848.366 348.509c-0.001 0-1.435-1.44-4.303-3.973l-12.324-11.069-2.05-1.83-2.221-1.855-4.758-3.974c-3.32-2.75-6.865-5.774-10.741-8.909l-10.017-7.748-6.435-4.968a18139.016 18139.016 0 0 0-13.804-9.856 4512.62 4512.62 0 0 1-3.563-2.539l-3.706-2.438-7.548-4.954-3.838-2.516c-1.289-0.84-2.568-1.708-3.917-2.49l-16.354-9.813-17.413-9.513-18.433-9.112-9.637-4.271-4.873-2.154c-1.636-0.708-3.25-1.478-4.936-2.106-26.567-10.947-55.755-19.974-86.678-25.922l-2.896-0.589c-0.969-0.18-1.946-0.321-2.921-0.482l-5.865-0.942-5.889-0.94c-1.969-0.302-3.933-0.664-5.923-0.861l-11.954-1.391c-2.002-0.205-3.997-0.521-6.014-0.631l-6.049-0.447c-4.04-0.273-8.089-0.642-12.155-0.828l-12.242-0.379c-2.045-0.038-4.094-0.174-6.144-0.129l-6.157 0.064c-4.107 0.071-8.231 0.034-12.351 0.204-8.231 0.466-16.519 0.71-24.764 1.62l-6.199 0.579c-2.067 0.199-4.141 0.361-6.195 0.667l-12.366 1.651c-4.139 0.483-8.216 1.317-12.326 1.995l-6.157 1.071-3.079 0.538-3.055 0.646-12.221 2.609c-1.017 0.223-2.041 0.425-3.053 0.666l-3.026 0.763-6.052 1.529c-32.319 8.069-63.5 19.698-93.016 33.269l-2.775 1.258-2.73 1.334-5.45 2.667-5.437 2.664c-1.813 0.881-3.622 1.766-5.385 2.726-7.079 3.788-14.224 7.395-21.059 11.412l-10.299 5.88-10.043 6.128c-6.728 3.991-13.132 8.348-19.592 12.516-3.248 2.059-6.336 4.307-9.478 6.456l-9.334 6.478-9.054 6.661a14453.16 14453.16 0 0 0-4.492 3.308l-2.236 1.649-2.184 1.7c-11.682 8.994-22.905 18.043-33.496 27.215-21.237 18.285-40.252 36.694-57.078 54.324-4.158 4.451-8.298 8.75-12.215 13.064l-11.388 12.711c-3.652 4.174-7.125 8.312-10.545 12.298-3.448 3.964-6.641 7.938-9.76 11.77C46.155 476.23 35.9 490.06 27.5 501.471 19.251 512.99 12.854 522.1 8.686 528.438L2.2 538.094l47.039 30.845 6.102-9.078c3.917-5.964 9.935-14.521 17.679-25.344 7.891-10.71 17.512-23.699 29.282-37.987 2.921-3.589 5.91-7.317 9.138-11.021 3.202-3.727 6.45-7.603 9.865-11.506l10.641-11.877c3.659-4.03 7.523-8.034 11.4-12.19 15.691-16.441 33.384-33.564 53.051-50.497 9.808-8.498 20.178-16.851 30.945-25.146l2.013-1.57 2.059-1.515 4.134-3.042 8.328-6.133 8.57-5.941c2.882-1.97 5.717-4.045 8.691-5.922 5.914-3.805 11.778-7.815 17.918-11.444l9.164-5.599 9.376-5.347c6.224-3.671 12.702-6.918 19.123-10.367 1.6-0.875 3.237-1.673 4.877-2.468l4.918-2.407 4.928-2.415 2.468-1.21 2.503-1.131c26.635-12.236 54.554-22.646 83.199-29.78l5.364-1.359 2.682-0.681c0.896-0.214 1.8-0.389 2.7-0.585l10.799-2.305 2.698-0.577 2.714-0.468 5.424-0.94c3.619-0.593 7.216-1.351 10.85-1.76l10.863-1.453c1.806-0.277 3.622-0.411 5.433-0.583l5.432-0.504c7.23-0.817 14.468-0.996 21.665-1.425 3.6-0.151 7.195-0.104 10.78-0.17l5.372-0.064c1.79-0.046 3.572 0.086 5.354 0.119l10.666 0.325c3.542 0.161 7.063 0.497 10.58 0.729l5.266 0.381c1.757 0.086 3.489 0.377 5.231 0.554l10.398 1.206c1.732 0.163 3.439 0.488 5.151 0.752l5.122 0.822 5.103 0.813c0.848 0.14 1.699 0.258 2.542 0.415l2.519 0.519a396.594 396.594 0 0 1 75.688 22.645c1.479 0.543 2.899 1.232 4.337 1.855l4.285 1.899 8.481 3.747 16.274 8.046 15.434 8.431 14.555 8.737c1.202 0.69 2.345 1.472 3.495 2.225l3.43 2.253a30250.468 30250.468 0 0 0 10.066 6.601l3.196 2.285 6.279 4.483 6.123 4.364 5.802 4.491 9.043 6.987c3.507 2.839 6.722 5.591 9.731 8.082a11062.71 11062.71 0 0 1 6.333 5.28l1.865 1.668 11.229 10.086c2.614 2.3 3.928 3.625 3.929 3.625L695.882 511.212z" fill="#ffffff" p-id="7506"></path></svg>